# xmcd CD database file
#
# Track frame offsets:
#	187
#	15465
#	40085
#	60360
#	80802
#	92257
#	119357
#	130567
#	152225
#
# Disc length: 2237 seconds
#
# Revision: 4
# Processed by: cddbd v1.5.2PL0 Copyright (c) Steve Scherf et al.
# Submitted via: CDex 1.51
#
DISCID=6008bb09
DTITLE=Roy Buchanan - That's What I Am Here For
DYEAR=1973
DGENRE=Blues
TTITLE0=My Baby Says She's Gonna Leave Me
TTITLE1=Hey Joe
TTITLE2=Home Is Where I Lost Her
TTITLE3=Rodney's Song
TTITLE4=That's What I Am Here For
TTITLE5=Roy's Bluz
TTITLE6=Voices
TTITLE7=Please Don't Turn Me Away
TTITLE8=Nephesh
EXTD=YEAR: 1973
EXTT0=
EXTT1=
EXTT2=
EXTT3=
EXTT4=
EXTT5=
EXTT6=
EXTT7=
EXTT8=
PLAYORDER=
